<svg
  xmlns="http://www.w3.org/2000/svg"
  width="50"
  height="50"
  version="1"
  viewBox="0 0 926 1280"
  className="icon"
  >
    <path
      fill="#f7ad90"
      d="M4590 12790c-504-70-1061-319-1550-694-180-137-298-243-500-445-205-205-343-365-514-591C1217 9986 599 8474 205 6605-192 4725-8 3226 759 2082c644-962 1746-1656 3111-1960C4285 29 4607-9 4815 9c444 40 933 150 1360 308 677 251 1220 590 1686 1053 235 234 352 373 521 620 794 1159 1050 2750 762 4740-94 651-444 1797-817 2675-547 1291-1251 2277-2015 2823-359 258-747 434-1126 512-224 47-470 67-596 50z"
      transform="matrix(.1 0 0 -.1 0 1280)"
    ></path>
</svg>